<?xml version="1.0" encoding="UTF-8"?>
<svg id="_レイヤー_2" data-name="レイヤー 2" xmlns="http://www.w3.org/2000/svg" viewBox="0 0 544.83 334.44">
  <defs>
    <style>
      .cls-1 {
        fill: none;
        stroke: #595757;
        stroke-miterlimit: 10;
        stroke-width: 4px;
      }
    </style>
  </defs>
  <g id="_レイヤー_1-2" data-name="レイヤー 1">
    <path class="cls-1" d="M93.53,148.86v-66.91l25.01-.17v-6.52h-57.2v6.52l25.06.26v66.91l-84.4-.09v-66.91h29.97v-6.52H2V8.18h71.79V2h32.64v6.18h71.51v67.26h-29.97v6.52h29.97v66.91h-84.4ZM2,332.44v-30.54l147.16.17v-116.32l-130.77-.17H2v-30.2h175.93v177.06H2ZM2,222.29v-30.2l140.43-.09v30.2l-140.43.09ZM2,259.01v-30.2l140.43-.09v30.2l-140.43.09ZM2,296.07v-30.54l140.43-.09v30.54l-140.43.09ZM149.16,38.89l-118.33-.17v6.18l118.33.17v-6.18ZM59.32,112.15h-28.5v6.52h28.5v-6.52ZM149.16,112.32l-28.6-.17v6.52l28.6.17v-6.52Z"/>
    <path class="cls-1" d="M332.76,332.44V38.72h-6.38v36.72l-78.54.04v6.52l78.54-.04v66.91l-78.58.04.07,6.52,78.51-.04v66.91l-78.54.39v6.52l78.54-.39v67.26l-78.54.04v6.18l78.54-.04v30.2h-108.22v-66.91l77.68-.26v-6.52l-77.68.26v-66.91l77.68-.26v-6.52l-77.68.26v-66.91l77.68-.26v-6.52l-77.68.26v-36.72h-6v257.01h-27.57V45.24l111.7-.43v-6.52l-111.7.43V8.18h175.93v324.27h-27.75Z"/>
    <polygon class="cls-1" points="366.71 332.27 366.71 302.08 401.07 301.9 401.07 295.73 366.71 295.9 366.71 8.35 420.78 8.35 420.78 38.54 387.47 38.37 387.47 44.89 420.75 45.06 420.75 75.26 420.75 75.26 420.67 111.98 387.47 111.8 387.47 118.32 420.67 118.5 420.67 148.69 420.67 148.69 420.67 185.75 387.47 185.58 387.47 192.1 420.56 192.27 420.56 222.47 420.56 222.47 420.56 259.18 387.47 259.01 387.47 265.53 420.56 265.7 420.56 332.27 366.71 332.27"/>
    <rect class="cls-1" x="387.47" y="75.09" width="12.11" height="6.52"/>
    <rect class="cls-1" x="387.47" y="148.52" width="12.11" height="6.52"/>
    <rect class="cls-1" x="387.47" y="222.29" width="12.11" height="6.52"/>
    <polygon class="cls-1" points="426.66 332.27 426.66 302.08 472.2 302.08 472.2 295.9 426.66 295.9 426.66 228.99 442.12 228.99 442.12 222.47 426.66 222.47 426.66 155.21 465.67 155.2 465.67 185.74 455.18 185.75 455.18 192.27 465.67 192.26 465.67 259.17 454.99 259.18 454.99 265.7 472.16 265.7 472.16 155.21 497.29 155.2 497.29 265.69 514.08 265.71 514.08 259.19 503.91 259.17 503.91 192.26 514.06 192.27 514.06 185.75 503.91 185.74 503.91 155.2 542.83 155.21 542.83 222.47 527.13 222.47 527.13 228.99 542.83 228.99 542.83 295.9 497.27 295.9 497.27 302.08 542.83 302.08 542.83 332.27 426.66 332.27"/>
    <polygon class="cls-1" points="487.71 148.69 487.71 111.98 481.54 111.98 481.54 148.69 426.66 148.69 426.66 118.5 452.27 118.5 452.27 111.98 426.66 111.98 426.66 81.78 472.15 81.78 472.15 75.26 426.66 75.26 426.66 8.35 466.01 8.35 466.01 38.54 451.37 38.54 451.37 45.06 472.23 45.06 472.23 8.35 497.3 8.35 497.3 45.06 517.99 45.06 517.99 38.54 503.35 38.54 503.35 8.35 542.83 8.35 542.83 75.26 497.28 75.26 497.28 81.78 542.83 81.78 542.83 111.98 516.98 111.98 516.98 118.5 542.83 118.5 542.83 148.69 487.71 148.69"/>
  </g>
</svg>