<?xml version="1.0" encoding="UTF-8"?>
<svg id="_レイヤー_2" data-name="レイヤー 2" xmlns="http://www.w3.org/2000/svg" viewBox="0 0 162 216">
  <g id="_レイヤー_1-2" data-name="レイヤー 1">
    <path d="M18.67,216v-20.34h37.5v-3.88H18.67v-44.8h37.5v-4.34H18.67v-44.57h37.5v-4.34H18.67v-44.57h37.5v-28.8h-3.6v24.46H15.07v171.2H0V24.68h37.5v-4.34H0V0h71.24v69.26h-37.33v4.34h37.33v44.57h-37.33v4.34h37.33v44.57h-37.33v4.34h37.33v44.57H18.67ZM73.81,216v-20.34h73.12v-3.88h-73.12v-44.8h73.12v-4.34h-73.12V55.09l5.99-8.23-5.99-8V0h88.19v20.34h-73.12v10.06l1.71,2.29,5.99-8.23h65.42v20.34h-59.25l-1.54,2.06c.51.91,1.2,1.37,1.54,2.28h59.25v20.12h-65.42l-5.99-8c-.69.69-1.2,1.37-1.71,2.06v59.2h73.12v44.57h-73.12v4.34h73.12v44.57h-88.19ZM92.13,118.17v-20.11h27.4v-4.34h-27.4v-20.12h69.87v20.12h-27.4v4.34h27.4v20.11h-69.87Z"/>
  </g>
</svg>