<?xml version="1.0" encoding="UTF-8"?>
<svg id="_レイヤー_2" data-name="レイヤー 2" xmlns="http://www.w3.org/2000/svg" viewBox="0 0 162 216">
  <g id="_レイヤー_1-2" data-name="レイヤー 1">
    <path d="M0,216v-20.12h146.91v-4.11H0v-118.17h33.43v73.37h113.49v-4.34H36.69v-69.03h33.6v24.46h76.63v-4.34h-73.37v-24.46H0V0h70.29v20.34H15.09v4.34h58.46V0h15.09v24.69h58.29v-4.34h-55.03V0h70.11v69.26h-73.37v4.34h73.37v44.57H55.03v-24.46h-3.26v28.8h110.23v44.57H18.34v-73.37h-3.26v77.72h146.91v44.57H0ZM73.54,44.8H15.09v4.35h58.46v-4.35ZM146.91,44.8h-58.29v4.35h58.29v-4.35Z"/>
  </g>
</svg>