<?xml version="1.0" encoding="UTF-8"?>
<svg id="_レイヤー_2" data-name="レイヤー 2" xmlns="http://www.w3.org/2000/svg" viewBox="0 0 720 216">
  <g id="_レイヤー_1-2" data-name="レイヤー 1">
    <g>
      <path d="M84.67,120.35c-12.41,0-24.59.45-36.78,1.34-5.88.45-12.19,1.56-18.28,1.56-16.76,0-25.25-8.91-25.25-26.3,0-15.38-1.52-30.76-3.7-46.13-.22-2.67-.65-5.35-.65-8.02,0-2.45.22-8.47,3.7-8.47,7.62,0,8.49,23.4,8.92,27.86,23.94-2.23,47.88-3.79,72.04-4.01V15.16c0-3.57,0-15.16,5.44-15.16,5.01,0,5.01,11.81,5.01,15.16v43.01c24.16.22,48.32,1.56,72.26,4.01.44-4.46,1.74-27.86,9.14-27.86,3.26,0,3.48,6.02,3.48,8.25,0,2.9-.22,5.57-.65,8.25-2.18,15.38-3.7,30.76-3.7,46.13s-7.18,26.3-23.29,26.3c-19.15,0-38.09-2.9-57.24-2.9v80.46c0,4.23-.22,14.71-5.01,14.71-5.44,0-5.44-12.04-5.44-15.6v-79.57ZM84.67,69.09c-23.72,0-47.45,1.34-71.17,4.01l1.31,23.85c.65,10.25,4.35,16.05,14.8,16.05,5.44,0,11.32-1.11,16.76-1.56,12.62-1.11,25.47-1.78,38.31-1.78v-40.56ZM166.51,73.1c-23.72-2.45-47.45-4.01-71.39-4.01v40.56c12.62,0,25.03.67,37.44,1.78,5.88.45,11.97,1.56,17.85,1.56,10.45,0,14.15-5.79,14.8-16.05l1.31-23.85Z"/>
      <path d="M317.98,0c6.03,0,10.17,2.59,12.41,7.75.86,1.92,1.29,3.62,1.29,5.1.17,22.6.34,33.9.52,33.9,7.75,0,12.58-2.88,14.48-8.64.86-2.51,1.55-6.35,2.07-11.52,1.2-1.77,2.93-2.66,5.17-2.66,3.27.74,4.91,2.22,4.91,4.43,0,4.14-1.29,9.38-3.88,15.73-4.31,7.53-11.98,11.3-23,11.3v4.65h2.58c13.96,0,24.3,3.4,31.02,10.19,1.89,2.81,2.84,5.39,2.84,7.75,0,4.87-3.02,10.56-9.05,17.06v.22c7.24,6.35,11.98,11.89,14.22,16.62,3.27,4.14,6.63,10.49,10.08,19.05,2.24,5.91,3.36,9.3,3.36,10.19,0,2.51-1.9,3.99-5.69,4.43-2.93,0-4.83-2.58-5.69-7.75-3.79-9.75-7.84-17.72-12.15-23.93-2.76-3.99-6.64-8.12-11.63-12.41-3.28,2.96-9.31,5.17-18.09,6.65-.52.15-1.03.22-1.55.22v12.18c0,1.18,1.38,1.77,4.14,1.77,7.92,2.07,13.7,5.54,17.32,10.41,3.45,4.43,5.17,11.52,5.17,21.27v50.73c-.35,3.54-1.81,5.32-4.39,5.32h-1.29c-3.1-.44-4.65-1.77-4.65-3.99v-53.17c0-12.41-4.31-19.64-12.92-21.71-1.55-.44-2.58-.66-3.1-.66v.22c.17,40.47.26,67.86.26,82.19-1.21,2.07-2.93,3.1-5.17,3.1-3.1,0-4.74-1.55-4.91-4.65-.17-.74-.26-2.07-.26-3.99,0-16.1-.09-41.79-.26-77.09h-.26c-3.28,0-7.24,1.7-11.89,5.1-2.76,2.66-4.65,6.35-5.69,11.08-.17,2.51-.26,4.36-.26,5.54v54.05c-.52,2.66-1.98,3.99-4.39,3.99h-1.55c-2.42,0-3.88-1.63-4.39-4.87v-52.5c0-15.06,6.46-24.88,19.39-29.46,2.75-.74,5.77-1.33,9.05-1.77v-.22c-.17-4.43-.26-7.9-.26-10.41v-1.55c-10.34.3-21.2.44-32.57.44h-36.71v12.63c3.96,0,8.96,1.7,14.99,5.1,7.58,5.02,11.37,13.15,11.37,24.37v53.61c-.35,3.25-1.98,4.87-4.91,4.87-3.45-.59-5.17-2.07-5.17-4.43v-54.5c0-9.6-3.53-15.8-10.6-18.61-2.58-1.03-4.48-1.55-5.69-1.55v.22c.17,37.36.34,64.32.52,80.86,0,1.92-1.72,3.17-5.17,3.77h-.26c-2.24,0-3.88-1.11-4.91-3.32l-.52-81.75c-4.65,0-9.22,2.29-13.7,6.87-2.76,3.69-4.14,7.61-4.14,11.74v55.16c0,2.8-1.21,4.58-3.62,5.32l-1.55.22c-3.28-.74-4.91-1.99-4.91-3.77v-56.71c0-11.08,5.43-19.35,16.28-24.81,5.34-1.92,9.22-2.88,11.63-2.88v-12.41h-37.48c-3.62-.29-5.43-1.62-5.43-3.99v-1.11c0-1.77,1.55-2.95,4.65-3.54h38v-11.96h-38c-.35,0-.52-.15-.52-.44v-7.98c0-.15.17-.22.52-.22h38v-11.74h-39.03c-2.42,0-3.97-1.4-4.65-4.21,0-2.66,1.89-4.21,5.69-4.65h38v-3.32h-.26c-12.58,0-20.59-5.1-24.04-15.29-1.21-5.32-1.81-9.38-1.81-12.18,0-1.92,1.64-3.17,4.91-3.77h.26c3.62,0,5.43,2.51,5.43,7.53.86,5.61,2.24,9.38,4.14,11.3,2.75,2.36,6.55,3.54,11.37,3.54v-28.8c0-5.76-1.03-8.64-3.1-8.64h-.78c-1.55,0-11.46,3.47-29.73,10.41-7.93,3.1-12.41,4.8-13.44,5.1h-1.29c-2.58,0-4.14-1.47-4.65-4.43,0-2.51,2.67-4.43,8.01-5.76,23.78-9.3,36.7-13.96,38.77-13.96h3.1c6.37,0,10.51,3.1,12.41,9.3.52,1.63.78,4.73.78,9.3v27.47h.78c7.06,0,11.54-2.36,13.44-7.09,1.2-2.51,2.15-6.72,2.84-12.63,1.2-1.77,2.75-2.66,4.65-2.66,3.45.44,5.17,1.77,5.17,3.99,0,6.5-1.81,12.78-5.43,18.83-4.83,5.61-11.89,8.42-21.2,8.42l-.26.44v2.88h67.98l1.55.22v-4.65c-11.89,0-19.73-4.65-23.52-13.96-1.55-5.02-2.33-9.53-2.33-13.51,0-2.07,1.64-3.4,4.91-3.99,3.27,0,5,1.7,5.17,5.1,0,4.43,1.29,8.86,3.88,13.29,2.75,2.96,6.72,4.43,11.89,4.43v-6.65c0-6.79-.09-15.8-.26-27.03,0-2.8-1.12-4.21-3.36-4.21-7.24,1.63-16.28,4.73-27.14,9.3h-1.03c-3.62-.29-5.43-1.77-5.43-4.43v-.44c0-2.07,3.27-4.06,9.82-5.98,11.72-4.87,19.65-7.31,23.78-7.31ZM252.33,68.68v11.74h69.53v-7.75c0-.74-.09-2.07-.26-3.99h-69.27ZM252.33,89.06v11.96h37.22c11.2,0,21.88-.15,32.05-.44l.26-.44v-11.08h-69.53ZM332.2,68.68l-.26.44c.17,8.42.34,12.63.52,12.63,5.17.89,11.46,3.4,18.87,7.53,4.3-4.43,6.55-8.2,6.72-11.3,0-5.32-8.62-8.42-25.85-9.3ZM332.2,91.05v8.42c4.48-.74,8.36-1.92,11.63-3.54-4.48-2.66-8.36-4.28-11.63-4.87Z"/>
      <path d="M471.8,173.44c-19.3.21-38.6,1.27-57.9,2.74-1.95,0-3.9.21-5.86.21-2.6,0-9.98,0-9.98-3.8,0-5.49,12.15-6.54,15.83-6.97,19.08-1.69,38.6-2.11,57.9-2.32v-18.79c-21.47.21-42.94,1.06-64.41,2.74-2.17,0-4.34.21-6.29.21-2.6,0-9.76,0-9.76-4.01,0-5.28,12.58-6.12,16.05-6.54,22.99-2.11,46.63-2.53,69.83-2.53s45.98.42,68.96,2.53c3.47.21,15.61,1.27,15.61,6.54,0,4.01-6.94,4.01-9.54,4.01-2.17,0-4.12-.21-6.07-.21-21.47-1.69-42.51-2.32-63.98-2.74v18.79c18.87,0,37.95.63,56.82,2.32,3.69.42,15.83,1.48,15.83,6.97,0,3.8-7.16,3.8-9.76,3.8-1.95,0-3.9-.21-6.07-.21-18.87-1.48-37.73-2.53-56.82-2.74v17.73c22.99.21,46.19,1.06,68.75,4.43,3.9.63,16.05,2.53,16.05,8.02,0,2.96-4.34,3.17-6.29,3.17-3.25,0-6.51-.42-9.76-.84-24.51-3.17-49.01-4.22-73.74-4.22s-50.75.63-74.17,4.22c-3.47.42-6.51,1.06-9.98,1.06-1.95,0-6.07-.21-6.07-3.17,0-4.85,12.36-7.6,16.05-8.23,17.78-3.17,49.88-4.22,68.75-4.43v-17.73ZM468.11,53.75c0,16.04-1.73,31.87-1.73,47.71,0,21.53-38.82,21.74-53.57,21.74-1.52,0-3.9.21-6.51.21-6.94,0-15.61-.84-15.61-6.12,0-3.59,9.11-4.01,15.83-4.01h7.37c9.54,0,40.99-.21,40.99-13.09,0-.63-.22-1.48-.22-2.11-4.34.21-8.67.21-13.01.21-9.33,0-18.87,0-28.19-.42-14.31-.42-20.17-6.75-21.04-20.48-.65-10.34-1.08-20.9-1.08-31.45,0-5.49,0-11.19.43-16.68,1.08-15.2,12.79-17.94,26.24-18.58,28.19-1.06,56.6-1.69,84.8-1.69,16.26,0,32.53,0,48.58.84,3.69.21,14.75.63,14.75,5.91,0,4.22-9.76,4.22-12.36,4.22-22.12,0-44.24-1.27-66.36-1.27s-44.24.21-66.36,1.27c-6.51.21-16.7.63-17.78,8.65l-.65,4.22c9.98-1.27,20.17-1.9,30.15-1.9h6.29c12.58,0,28.41,1.06,29.06,15.62v7.18ZM457.92,48.68c-.43-6.97-12.58-7.6-20.6-7.6h-4.77c-9.98,0-19.74.63-29.49,1.9-.65,5.91-.87,11.82-.87,17.52,9.76-1.27,19.52-1.69,29.49-1.69,8.89,0,17.78.42,26.68.84l-.43-10.98ZM402.83,77.81c0,9.08,11.06,10.34,20.38,10.34,3.04,0,6.07-.21,8.24-.21,8.46,0,16.92-.42,25.16-.84,0-5.7.22-11.61.87-17.31-8.24-.42-16.48-.84-24.72-.84-9.98,0-19.95.42-29.93,1.9v6.97ZM555.94,31.8c4.55,0,5.2,12.03,5.2,20.9,0,3.59-.22,6.54-.22,8.02,0,9.92,0,19.63-.22,29.55-.22,24.06-13.88,29.76-36.43,29.76s-33.83-6.75-33.83-29.13c0-10.13-.87-20.26-.87-30.4,0-5.7.22-11.19.22-16.68,0-2.53,0-12.03,4.55-12.03,5.42,0,5.86,10.77,5.86,16.04v1.69c8.46-.42,16.92-.63,25.16-.63s16.7.21,24.94.63c0-3.59,0-17.73,5.64-17.73ZM525.36,59.03c-8.24,0-16.7.21-25.16.63,0,10.55.43,20.9.65,31.24.22,16.25,9.11,19.63,24.29,19.63s25.37-3.59,25.37-20.26c0-10.13-.22-20.26-.22-30.61-8.24-.42-16.7-.63-24.94-.63Z"/>
      <path d="M579.9,148.37v-22.31c0-18.74,0-37.49.71-56.23.18-6.02.89-12.05,3.55-17.41,5.32-10.04,19.86-19.86,19.86-31.46,0-1.56-.18-3.12-.53-4.69-6.03.45-12.06,1.34-18.09,1.34-2.48,0-9.4-.22-9.4-5.13,0-5.36,9.4-5.58,12.24-5.8,18.09-1.56,36.35-1.56,54.62-1.56,15.96,0,31.92,0,47.88.45,17.38.45,25.89,9.82,25.89,32.36,0,20.75-1.77,38.83-22.17,38.83-6.38,0-12.77-1.56-19.15-1.56s-12.59.45-18.98,1.34c-12.06,1.79-16.67,10.26-16.67,25.22,0,27.89,11.35,49.98,29.97,64.49,12.95,10.04,26.6,18.97,40.43,27.22,2.66,1.34,9.93,5.58,9.93,9.82,0,2.68-2.13,3.57-3.9,3.57-8.33,0-42.74-25.44-50.72-31.91-18.8-15.4-32.28-33.25-33.87-62.48-.18-3.35-.35-6.69-.35-9.82,0-37.71,22.17-38.38,45.93-38.38,5.5,0,10.99,1.34,16.32,1.34,14.01,0,14.19-16.74,14.19-30.12s-4.26-19.19-14.9-19.19c-13.83,0-27.84-1.34-41.67-1.34-12.59,0-25.18.45-37.77,1.34v2.68c0,19.86-13.48,24.55-21.64,38.16-2.31,3.79-2.48,6.69-2.48,10.93v1.56c0,12.94-.35,25.88-.53,38.83-.18,28.56-.18,56.9-.18,85.46,0,2.68-.18,16.51-3.9,16.51-4.43,0-4.61-13.39-4.61-16.51v-45.52Z"/>
    </g>
  </g>
</svg>