<?xml version="1.0" encoding="UTF-8"?>
<svg id="_レイヤー_2" data-name="レイヤー 2" xmlns="http://www.w3.org/2000/svg" viewBox="0 0 720 215.37">
  <g id="_レイヤー_1-2" data-name="レイヤー 1">
    <g>
      <path d="M43.04,25.82v-.43c0-8-10.16-9.52-16.44-9.73-14.06,58.17-16,114.62-16,173.88v1.95c0,3.89-.22,11.46-3.89,11.46-6.06,0-6.7-12.33-6.7-19.46v-3.89C0,124.22,3.46,69.07,14.49,14.57,11.03,13.93,0,11.11,0,6.36c0-3.03,2.16-3.68,4.97-3.68,7.57,0,15.57,2.81,23.36,3.68,2.59.43,5.19.22,8,.65,10.6,1.73,17.3,7.57,17.3,18.82,0,1.08-.22,2.16-.22,3.46-3.03,29.41-5.62,58.61-6.92,88.02-.65,18.17-1.3,36.33-1.3,54.5,0,8.87.43,17.73.43,26.6v.87c0,3.24-.22,10.81-3.68,10.81-6.7,0-7.35-16.87-7.35-28.11v-8.65c0-18.81.65-37.63,1.51-56.44,1.3-30.06,4.97-59.69,6.7-89.75l.22-1.3ZM79.58,51.99c-4.11-4.97-6.92-15.79-6.92-22.06,0-16,16.22-19.25,29.2-20.11,10.16-.65,20.54-.86,30.93-.86h4.11c12.33,0,42.39.43,42.39,8.43,0,3.68-6.92,3.68-9.3,3.68-12.54,0-25.09-1.51-37.63-1.51-10.16,0-20.54.22-30.49.86-7.14.43-18.17,1.95-18.17,11.25,0,5.84,3.89,11.68,6.06,16.65,13.41-5.84,28.76-7.35,43.25-7.35,7.35,0,45.42.43,45.42,8.65,0,3.89-6.49,4.11-9.08,4.11-11.68,0-23.36-2.16-35.03-2.16-13.19,0-28.33,1.3-40.01,7.78,2.16,11.46,8.43,19.46,20.98,19.46,7.35,0,15.79-1.51,23.79-1.51,6.49,0,40.01.86,40.01,8.87,0,3.89-7.14,3.89-9.73,3.89-10.38,0-21.41-2.81-33.09-2.81-8.22,0-16.65,1.73-24.87,1.73-16.22,0-24.01-10.81-27.25-25.52-3.89,3.89-5.19,9.3-5.41,14.71-2.16,38.93-3.24,77.85-3.24,116.78v.86c0,4.11-.22,14.27-4.76,14.27-4.97,0-5.84-11.89-5.84-20.54,0-3.68.22-6.92.22-8.43,0-34.39,1.3-68.56,3.03-102.94.65-8.22,1.95-22.92,11.46-26.17ZM128.24,127.9c-8.22.43-16.65.65-24.87.65h-.86c-3.46,0-10.6-.22-10.6-4.11,0-6.7,20.98-7.35,31.79-7.35h11.03c12.76,0,38.93.65,38.93,7.79,0,4.11-7.79,4.11-10.38,4.11-8.22,0-16.44-1.08-24.65-1.08v45.2h5.41c11.68,0,34.6.65,34.6,7.57,0,4.11-7.79,4.11-10.38,4.11-12.11,0-24.22-1.08-36.33-1.08s-25.09,1.08-37.41,1.08c-2.81,0-10.6,0-10.6-4.11,0-6.92,24.01-7.57,37.2-7.57h7.14v-45.2Z"/>
      <path d="M218.66,10.98c9.85.71,20.75,1.34,32.67,1.9,2.08.99,3.11,2.19,3.11,3.59v1.06c-1.04,2.25-2.51,3.38-4.41,3.38-6.92,0-17.37-.56-31.38-1.69-5.02.42-7.52,1.76-7.52,4.01-.35.42-.61,1.62-.78,3.59v.21c0,8.31,3.02,12.46,9.08,12.46h1.3c.86,0,3.46-.14,7.78-.42,8.64,0,15.47,3.66,20.49,10.98,3.8,5.78,5.7,13.45,5.7,23.02v6.12c0,27.32-5.19,69.91-15.56,127.77-1.39,1.69-3.03,2.53-4.93,2.53-3.46-.71-5.19-2.11-5.19-4.22,5.36-29.15,9.94-60.89,13.74-95.25h-.26c-.52.14-1.04.21-1.56.21h-1.3l-24.9-5.91v.21l-2.07,14.99c12.79,8.73,19.71,13.66,20.75,14.78.52.71.78,1.48.78,2.32-.87,2.53-2.51,3.8-4.93,3.8h-1.3c-1.21,0-6.05-3.17-14.52-9.5-1.04-.7-1.99-1.34-2.85-1.9-2.77,11.83-5.88,21.54-9.34,29.15-1.73,4.5-3.72,6.76-5.96,6.76h-1.3c-2.25,0-3.8-1.13-4.67-3.38v-1.06c6.39-15.63,9.59-24.71,9.59-27.24,4.32-15.77,6.48-32.31,6.48-49.63v-3.59c0-4.22-.26-9.85-.78-16.9,0-1.83,1.73-3.03,5.19-3.59,3.63,0,5.45,2.32,5.45,6.97.17,1.55.26,3.31.26,5.28h.26l18.93-1.27c3.11.56,4.67,1.69,4.67,3.38v1.27c0,2.53-2.77,3.8-8.3,3.8,0,.14-5.1.56-15.3,1.27v.21c0,2.82-.09,7.81-.26,14.99,16.08,4.09,25.32,6.55,27.75,7.39.69-8.16,1.04-16.33,1.04-24.5v-5.07c0-13.09-3.63-21.4-10.89-24.92-1.9-.56-3.63-.84-5.19-.84-2.59.28-4.76.42-6.48.42h-2.59c-8.65,0-14.61-4.08-17.89-12.25-.69-3.1-1.04-5.84-1.04-8.24v-.84c0-7.6,3.63-12.53,10.89-14.78,2.59-.56,5.1-.84,7.52-.84ZM292.05,11.19h1.3c3.11.42,4.67,1.69,4.67,3.8,0,5.07-2.77,11.48-8.3,19.22-2.07,3.24-7.78,8.31-17.12,15.21-3.29,2.25-5.53,3.38-6.74,3.38h-.78c-2.59,0-4.15-1.41-4.67-4.22v-.21c0-1.69,2.42-3.87,7.26-6.55,7.09-5.35,11.32-9.08,12.71-11.19,3.63-4.08,6.22-9.78,7.78-17.11,1.38-1.55,2.68-2.32,3.89-2.32ZM309.43,63.15v1.48c0,1.27-3.03,3.59-9.08,6.97-15.22,9.58-23.95,15.21-26.19,16.9-1.73,2.96-2.59,5.7-2.59,8.24.17,1.83.52,3.52,1.04,5.07h.26c3.11-4.22,8.73-8.66,16.86-13.3,8.82-4.5,13.91-6.97,15.3-7.39.17,0,.52-.07,1.04-.21,2.94,0,4.67,1.48,5.19,4.44,0,1.97-2.42,3.94-7.26,5.91-15.04,7.18-23.6,13.8-25.67,19.85,1.9,1.41,3.97,2.11,6.22,2.11h.26c6.22,0,13.4-2.96,21.52-8.87l1.04-.21h2.07c2.08,0,3.46,1.34,4.15,4.01,0,3.1-6.05,7.11-18.15,12.04-3.98.99-7.18,1.48-9.59,1.48h-1.82c-2.42,0-4.76-.42-7-1.27l-.26,1.27c-.17,30.41-.26,50.69-.26,60.82-.87,2.25-2.42,3.38-4.67,3.38h-1.3c-2.25,0-3.72-1.34-4.41-4.01.17-46.04.6-69.06,1.3-69.06-3.98-5.35-5.96-10.28-5.96-14.78v-2.53c0-7.6,4.23-13.52,12.71-17.74,18.15-11.83,27.75-17.81,28.79-17.95l1.3-.21c3.46.56,5.19,1.76,5.19,3.59ZM314.87,0c3.46.42,5.19,1.83,5.19,4.22v10.35l-.26,1.27c1.56,9.01,4.23,16.4,8.04,22.18,2.76,4.22,7.69,9.22,14.78,15,6.57,4.51,14.43,8.73,23.6,12.67,1.04.99,1.56,1.9,1.56,2.75-.35,3.1-2.07,4.65-5.19,4.65h-.26c-2.42,0-10.11-3.8-23.08-11.4-7.95-5.77-13.14-10.28-15.56-13.52-3.8-4.36-6.66-8.52-8.56-12.46,0-.42-.17-.63-.52-.63,0,1.27-2.51,5.28-7.52,12.04-1.9,2.96-7.44,7.74-16.6,14.36-8.82,5.49-16.17,9.29-22.04,11.4-.17.14-.61.21-1.3.21-3.46-.56-5.19-1.76-5.19-3.59v-1.27c0-1.83,2.59-3.59,7.78-5.28,7.09-2.96,15.13-8.16,24.12-15.63,5.71-6.05,9.16-10.7,10.37-13.94,3.63-7.04,5.45-13.31,5.45-18.8V3.59c0-1.97,1.73-3.17,5.19-3.59ZM294.39,156.29h.78c3.11.56,4.67,1.76,4.67,3.59v.21c-2.25,9.85-3.37,17.32-3.37,22.39,0,6.34,1.38,11.68,4.15,16.05l-7.26,5.49h-.26c-4.67-4.51-7-11.76-7-21.75,0-7.6,1.38-15.63,4.15-24.08,1.21-1.27,2.59-1.9,4.15-1.9ZM292.83,126.51c3.63,0,6.22,3.45,7.78,10.35.17.42.26,1.2.26,2.32v1.69c0,2.82-.87,5.42-2.59,7.81-4.32-1.97-7.26-3.17-8.82-3.59.69-2.25,1.04-3.8,1.04-4.65v-1.06c0-1.83-.95-4.44-2.85-7.81v-1.48c0-1.97,1.73-3.17,5.19-3.59ZM312.54,122.71h1.04c3.97,0,7,5.99,9.08,17.95v2.96c0,3.52-1.82,9.86-5.45,19.01-.87,3.66-1.3,7.11-1.3,10.35,0,9.72,2.25,20.27,6.74,31.68v.84c0,2.11-1.73,3.45-5.19,4.01-3.29,0-5.62-2.89-7-8.66-3.29-9.43-4.93-18.66-4.93-27.67,0-7.18,2.07-15.49,6.22-24.92.52-1.97.78-3.52.78-4.65v-.84c0-4.36-1.65-9.43-4.93-15.21v-1.06c0-1.83,1.64-3.1,4.93-3.8ZM323.95,59.56c1.9,0,5.79,2.04,11.67,6.13,13.31,7.89,22.73,13.87,28.27,17.95,4.84,5.49,7.26,10.7,7.26,15.63v1.9c0,5.78-2.94,11.27-8.82,16.47.34,12.67.6,34.14.78,64.41-.69,2.53-2.07,3.8-4.15,3.8h-1.56c-1.9,0-3.37-1.06-4.41-3.17-.17-30.41-.43-50.76-.78-61.04h-3.63c-8.65,0-17.72-3.73-27.23-11.19-.52-.98-.78-1.76-.78-2.32.69-2.67,2.16-4.01,4.41-4.01h1.3c1.38,0,3.72,1.27,7,3.8,6.22,3.52,11.41,5.28,15.56,5.28h1.56l1.3-.21c-.35-3.24-2.77-6.9-7.26-10.98-5.7-4.22-13.48-8.66-23.34-13.3-1.39-.84-2.07-1.9-2.07-3.17v-.63c0-2.11,1.64-3.45,4.93-4.01,1.38,0,5.27,1.76,11.67,5.28,13.14,6.34,21.09,12.74,23.86,19.22h.26c.86-2.39,1.3-4.08,1.3-5.07,0-6.62-4.76-12.39-14.26-17.32-1.56-.98-10.55-6.48-26.97-16.47-.52-.98-.78-1.76-.78-2.32v-.84c0-1.97,1.64-3.24,4.93-3.8ZM332.51,156.5h1.3c2.59,0,4.15,1.34,4.67,4.01-1.21,5.63-1.82,10.49-1.82,14.57,0,8.87,2.5,16.19,7.52,21.96,1.04.84,1.56,1.76,1.56,2.75,0,2.39-1.82,3.8-5.45,4.22-4.32,0-8.47-5.77-12.45-17.32-1.04-3.94-1.56-7.89-1.56-11.83,0-5.91.78-11.33,2.33-16.26,1.56-1.41,2.85-2.11,3.89-2.11ZM334.84,11.19h1.56c2.76,0,4.41,2.4,4.93,7.18,2.59,7.46,6.65,13.31,12.19,17.53,2.42,2.4,5.96,5.07,10.63,8.03,2.59,1.41,3.89,2.82,3.89,4.22v.63c-.69,2.68-2.33,4.01-4.93,4.01h-.78c-2.42,0-8.99-4.65-19.71-13.94-7.26-8.16-11.24-15.49-11.93-21.96-.17-.42-.26-1.06-.26-1.9.69-2.53,2.16-3.8,4.41-3.8ZM336.14,124.82h.52c3.46,0,5.96,3.45,7.52,10.35.17.56.26,1.34.26,2.32v1.06c0,3.1-.78,5.91-2.33,8.45-4.15-1.83-7.09-3.1-8.82-3.8v-.21c.69-2.11,1.04-3.59,1.04-4.43v-.42c0-2.25-.95-5-2.85-8.24l-.26-.84c.69-2.82,2.33-4.22,4.93-4.22Z"/>
      <path d="M555.54,196.45v-.86c-1.51-38.49-.65-77.85-5.84-116.13-1.51-11.89-9.08-16.44-20.33-17.95-16.44-2.38-33.52-2.6-50.17-2.6h-7.78c-15.57,0-31.57.43-46.93,2.6-11.68,1.51-19.03,5.41-20.33,17.95-3.89,38.49-4.11,77.42-5.62,116.13v.86c0,3.89-.22,13.62-5.41,13.62-4.76,0-4.76-11.89-4.76-14.49,0-38.49,2.16-79.8,5.19-118.08,1.51-18.82,12.76-24.65,30.06-26.38,19.9-2.16,39.58-2.6,59.47-2.6,15.79,0,31.57.86,47.15,2.6,16.87,1.95,28.11,8.43,30.06,26.38,4.11,38.49,5.41,80.02,5.41,118.94,0,2.38,0,13.62-4.76,13.62-5.19,0-5.41-9.52-5.41-13.62ZM422.75,20.63c-8,0-15.79,1.08-23.79,1.08-2.6,0-9.3-.22-9.3-4.11,0-6.92,19.9-7.35,28.11-7.35h2.38c18.6,0,29.41,6.92,29.41,26.38,0,3.24-.43,8.43-4.54,8.43-4.76,0-6.06-12.11-6.49-15.14-1.51-7.35-9.52-9.3-15.79-9.3ZM473.57,135.03c-9.73,0-19.9.65-29.41,2.16-10.81,1.73-15.14,8.22-16.65,18.6-1.51,11.46-3.24,22.92-3.89,34.6,0,3.24,0,13.84-5.19,13.84s-4.97-10.81-4.97-13.84c0-12.11,2.16-24.65,3.68-36.76,1.95-17.08,9.3-24.22,26.17-26.82,10.16-1.3,19.9-2.6,30.28-2.6v-11.25h-31.14c-13.62,0-26.38-4.11-26.38-20.11v-.86c0-4.11.22-15.14,4.97-15.14,5.62,0,5.41,12.76,5.62,16,.22,8,6.49,9.52,13.41,9.52h33.52c0-1.08-.43-6.06-.43-11.68,0-9.3,1.08-20.76,5.84-20.76s5.41,11.03,5.41,20.33c0,5.84-.43,11.03-.43,12.11h28.98c6.7,0,12.98-1.51,13.19-9.52.22-3.24.22-16,5.62-16,4.76,0,4.97,11.03,4.97,15.14v.86c0,16-12.76,20.11-26.38,20.11h-26.38v11.25c9.3,0,18.6,1.08,27.9,2.6,17.52,3.03,23.57,14.06,25.09,30.71,1.08,11.46,3.68,23.14,3.68,34.6,0,2.81-.43,12.11-4.97,12.11-5.41,0-5.19-10.38-5.41-13.84-.86-10.16-2.81-20.54-3.89-30.71-.86-10.38-4.11-20.11-15.35-22.49-8.65-1.95-17.95-2.16-27.03-2.16v60.34c0,4.11-.22,14.92-4.97,14.92-5.19,0-5.41-10.81-5.41-14.92v-60.34ZM473.57,15.87c0-3.24,0-15.14,5.41-15.14,4.76,0,4.97,10.16,4.97,14.27v14.49c0,3.03,0,15.57-4.97,15.57s-5.41-12.54-5.41-15.57v-13.62ZM512.5,45.07c-4.11,0-4.54-5.19-4.54-8.43,0-19.46,10.81-26.38,29.41-26.38h2.38c8.22,0,28.11.43,28.11,7.35,0,3.89-6.7,4.11-9.3,4.11-8,0-15.79-1.08-23.79-1.08-6.27,0-14.27,1.95-15.79,9.3-.43,3.03-1.73,15.14-6.49,15.14Z"/>
      <path d="M646.39,10.14c27.28,0,44.88.94,52.82,2.81,3.9,1.44,7.5,3.32,10.82,5.63,6.64,5.77,9.96,12.56,9.96,20.35v1.3c0,8.95-4.04,14.87-12.12,17.75-5.34,1.59-11.19,2.38-17.54,2.38-6.35.15-13.35,1.08-21,2.81-7.07,2.6-10.61,6.21-10.61,10.82,0,7.22.29,52.9.87,137.04-.87,2.74-2.46,4.11-4.76,4.11,0,.14-.15.22-.43.22-2.74,0-4.55-1.59-5.41-4.76l-1.08-135.52c0-13.42,9.38-21.5,28.14-24.25,18.33-1.15,27.49-2.09,27.49-2.81,2.45,0,4.33-1.73,5.63-5.2l.22-3.25c0-7.65-4.19-12.99-12.56-16.02-5.63-1.87-20.78-2.81-45.46-2.81h-15.8v1.52c0,15.59-6.71,29.37-20.13,41.35-8.66,6.06-16.24,9.45-22.73,10.17,0,.43-4.76.65-14.29.65-3.03-.87-4.55-2.6-4.55-5.2,0-2.45,1.22-4.18,3.68-5.2,7.22-.29,12.34-.65,15.37-1.08,9.53-2.74,17.1-7.65,22.73-14.72,6.06-8.08,9.09-17.17,9.09-27.28-8.95,0-19.34.22-31.17.65-2.02,0-3.61-1.52-4.76-4.55v-1.08c0-2.74,1.87-4.47,5.63-5.2,24.1-.43,41.42-.65,51.96-.65ZM615.22,71.4c3.32.58,4.98,2.53,4.98,5.85.29,5.34.5,11.55.65,18.62,0,39.11-6.21,72.31-18.62,99.59-1.16,1.59-2.67,2.38-4.55,2.38h-.43c-2.74,0-4.4-1.81-4.98-5.41,0-.43,1.66-4.69,4.98-12.77,8.51-24.1,12.77-52.39,12.77-84.86,0-4.76-.22-10.97-.65-18.62,1.01-3.17,2.52-4.76,4.55-4.76h1.3ZM693.59,71.4h1.08c2.31,0,3.9,1.52,4.76,4.55-.29,8.52-.43,14.87-.43,19.05,0,38.39,4.98,70.72,14.94,96.99v.65c0,3.03-1.81,4.76-5.41,5.2-2.6,0-4.33-1.37-5.2-4.11-10.1-26.55-15.15-59.24-15.15-98.07,0-14.58.5-21.87,1.51-21.87,1.15-1.59,2.45-2.38,3.9-2.38Z"/>
    </g>
  </g>
</svg>